<?xml version="1.0" encoding="UTF-8" standalone="no"?><!DOCTYPE svg PUBLIC "-//W3C//DTD SVG 1.1//EN" "http://www.w3.org/Graphics/SVG/1.1/DTD/svg11.dtd"><svg width="100%" height="100%" viewBox="0 0 200 200" version="1.1" xmlns="http://www.w3.org/2000/svg" xmlns:xlink="http://www.w3.org/1999/xlink" xml:space="preserve" xmlns:serif="http://www.serif.com/" style="fill-rule:evenodd;clip-rule:evenodd;stroke-linejoin:round;stroke-miterlimit:1.41421;"><g><g transform="matrix(1,0,0,1,-145.101,18.59)"><text x="166.067px" y="95.21px" style="font-family:'AppleSymbols', 'Apple Symbols';font-size:50px;fill:#fff;">Drink</text><text x="252.811px" y="95.21px" style="font-family:'AppleSymbols', 'Apple Symbols';font-size:33.333px;fill:#fff;">&amp;</text><text x="270.014px" y="95.21px" style="font-family:'AppleSymbols', 'Apple Symbols';font-size:50px;fill:#fff;">Go</text></g><g><path d="M17.009,89.783l-0.82,22.529c-0.02,0.526 -0.213,0.957 -0.43,0.957l-8.693,0c-0.217,0 -0.413,-0.431 -0.429,-0.957l-0.821,-22.529l11.193,0Z" style="fill:#fff;fill-rule:nonzero;"/><path d="M16.13,91.652l-0.69,19.785c-0.016,0.463 -0.178,0.84 -0.361,0.84l-7.309,0c-0.182,0 -0.347,-0.377 -0.361,-0.84l-0.69,-19.785l9.411,0Z" style="fill:#fff;fill-rule:nonzero;"/><path d="M16.13,91.652l-0.368,19.785c-0.009,0.463 -0.096,0.84 -0.193,0.84l-3.905,0c-0.098,0 -0.186,-0.377 -0.193,-0.84l-0.369,-19.785l5.028,0Z" style="fill:#fff;fill-rule:nonzero;"/><path d="M16.178,114.231l0,0.392l-9.507,0l0,-0.392c0,-0.263 0.089,-0.48 0.198,-0.48l9.112,0c0.11,0 0.197,0.217 0.197,0.48Z" style="fill:#fff;fill-rule:nonzero;"/></g><g><path d="M179.062,87.154c0,-0.508 -0.412,-0.921 -0.92,-0.921l-1.841,0c-0.508,0 -0.92,0.413 -0.92,0.921l0,10.488c0,0.508 0.412,0.921 0.92,0.921l1.841,0c0.508,0 0.92,-0.413 0.92,-0.921l0,-10.488Z" style="fill:#fff;"/><path d="M194.107,99.478c0.051,0.283 0.077,0.571 0.077,0.863c0,3.663 -4.133,6.636 -9.224,6.636c-5.091,0 -9.224,-2.973 -9.224,-6.636c0,-0.292 0.026,-0.58 0.078,-0.863l18.293,0Z" style="fill:#fff;"/><path d="M187.704,106.096l-5.424,0l-2.084,7.972l9.592,0l-2.084,-7.972Z" style="fill:#fff;"/><path d="M183.512,85.377l-5.35,12.762l0.644,0.161l5.35,-12.761l-0.644,-0.162Z" style="fill:#fff;"/></g></g></svg>