<?xml version="1.0" encoding="UTF-8" standalone="no"?><!DOCTYPE svg PUBLIC "-//W3C//DTD SVG 1.1//EN" "http://www.w3.org/Graphics/SVG/1.1/DTD/svg11.dtd"><svg width="100%" height="100%" viewBox="0 0 200 200" version="1.1" xmlns="http://www.w3.org/2000/svg" xmlns:xlink="http://www.w3.org/1999/xlink" xml:space="preserve" xmlns:serif="http://www.serif.com/" style="fill-rule:evenodd;clip-rule:evenodd;stroke-linejoin:round;stroke-miterlimit:1.41421;"><g><ellipse cx="100" cy="128.332" rx="72.112" ry="8.508" style="fill:#3b9b97;"/><g><path d="M117.669,63.16l-2.59,59.191c-0.062,1.383 -0.671,2.515 -1.357,2.515l-27.444,0c-0.685,0 -1.303,-1.132 -1.356,-2.515l-2.591,-59.191l35.338,0Z" style="fill:#fff;fill-rule:nonzero;"/><path d="M114.894,68.071l-2.177,51.981c-0.053,1.217 -0.565,2.209 -1.142,2.209l-23.074,0c-0.576,0 -1.098,-0.992 -1.141,-2.209l-2.179,-51.981l29.713,0Z" style="fill:#fff;fill-rule:nonzero;"/><path d="M114.894,68.071l-1.163,51.981c-0.028,1.217 -0.302,2.209 -0.61,2.209l-12.328,0c-0.307,0 -0.586,-0.992 -0.609,-2.209l-1.164,-51.981l15.874,0Z" style="fill:#fff;fill-rule:nonzero;"/><path d="M115.046,127.395l0,1.029l-30.015,0l0,-1.029c0,-0.692 0.28,-1.261 0.624,-1.261l28.767,0c0.349,0 0.624,0.569 0.624,1.261Z" style="fill:#fff;fill-rule:nonzero;"/></g></g></svg>