<?xml version="1.0" encoding="UTF-8" standalone="no"?><!DOCTYPE svg PUBLIC "-//W3C//DTD SVG 1.1//EN" "http://www.w3.org/Graphics/SVG/1.1/DTD/svg11.dtd"><svg width="100%" height="100%" viewBox="0 0 200 200" version="1.1" xmlns="http://www.w3.org/2000/svg" xmlns:xlink="http://www.w3.org/1999/xlink" xml:space="preserve" xmlns:serif="http://www.serif.com/" style="fill-rule:evenodd;clip-rule:evenodd;stroke-linejoin:round;stroke-miterlimit:1.41421;"><g><ellipse cx="100" cy="128.332" rx="72.112" ry="8.508" style="fill:#3b9b97;"/></g><g><path d="M113.719,46.446c0,-1.558 1.265,-2.822 2.823,-2.822l5.644,0c1.557,0 2.822,1.264 2.822,2.822l0,32.161c0,1.557 -1.265,2.822 -2.822,2.822l-5.644,0c-1.558,0 -2.823,-1.265 -2.823,-2.822l0,-32.161Z" style="fill:#fff;"/><path d="M67.591,84.236c-0.157,0.866 -0.238,1.75 -0.238,2.647c0,11.229 12.673,20.345 28.282,20.345c15.61,0 28.283,-9.116 28.283,-20.345c0,-0.897 -0.081,-1.781 -0.238,-2.647l-56.089,0Z" style="fill:#fff;"/><path d="M87.221,104.526l16.633,0l6.39,24.445l-29.413,0l6.39,-24.445Z" style="fill:#fff;"/><path d="M100.076,40.999l16.405,39.13l-1.977,0.496l-16.404,-39.13l1.976,-0.496Z" style="fill:#fff;"/></g></svg>