<?xml version="1.0" encoding="UTF-8" standalone="no"?><!DOCTYPE svg PUBLIC "-//W3C//DTD SVG 1.1//EN" "http://www.w3.org/Graphics/SVG/1.1/DTD/svg11.dtd"><svg width="100%" height="100%" viewBox="0 0 200 200" version="1.1" xmlns="http://www.w3.org/2000/svg" xmlns:xlink="http://www.w3.org/1999/xlink" xml:space="preserve" xmlns:serif="http://www.serif.com/" style="fill-rule:evenodd;clip-rule:evenodd;stroke-linejoin:round;stroke-miterlimit:1.41421;"><g><ellipse cx="94.073" cy="179.766" rx="54.284" ry="5.299" style="fill:#3b9b97;"/><g><path d="M121.986,24.228c0,-2.345 1.903,-4.249 4.248,-4.249l8.496,0c2.344,0 4.248,1.904 4.248,4.249l0,61.964c0,2.345 -1.904,4.248 -4.248,4.248l-8.496,0c-2.345,0 -4.248,-1.903 -4.248,-4.248l0,-61.964Z" style="fill:#fff;"/><path d="M52.55,95.673c-0.237,1.615 -0.358,3.261 -0.358,4.933c0,20.929 19.076,37.92 42.573,37.92c23.496,0 42.572,-16.991 42.572,-37.92c0,-1.672 -0.121,-3.318 -0.358,-4.933l-84.429,0Z" style="fill:#fff;"/><path d="M82.098,133.49l25.038,0l9.618,45.56l-44.274,0l9.618,-45.56Z" style="fill:#fff;"/><path d="M101.449,15.087l24.693,72.931l-2.975,0.924l-24.693,-72.931l2.975,-0.924Z" style="fill:#fff;"/></g></g></svg>